#!OML:ASF E:\inclinewalkrobotboard\Project 1\Capture day 1\Session 1\subject1.ASF
:FULLY-SPECIFIED
:DEGREES
331
root 10.5593 16.4465 10.5995 16.8999 -81.9805 2.70024
lowerback 5.42952 -0.481214 -14.1119
upperback 2.32796 -1.41621 -0.393165
thorax -0.256208 -0.838137 7.58935
lowerneck 3.94195 -9.91944 -0.921939
upperneck -17.1645 -12.2554 12.4708
head -4.92545 -7.02415 4.63389
rclavicle 6.75868e-015 6.67916e-014
rhumerus -45.9399 -39.2784 -46.6668
rradius 74.6404
rwrist -36.4974
rhand -14.3117 -24.7739
rfingers 7.12502
rthumb 11.8286 -54.4199
lclavicle 6.75868e-015 6.67916e-014
lhumerus -27.1802 -41.6792 108.863
lradius 98.3445
lwrist -7.28268
lhand -55.2802 -34.7008
lfingers 7.12502
lthumb -27.6482 -6.71256
rfemur -10.4313 5.2977 -9.84417
rtibia 6.0717
rfoot -2.51021 -45.0299
rtoes 37.6983
lfemur -30.5161 -1.31223 -8.11501
ltibia 18.2064
lfoot -12.6646 19.5029
ltoes -66.4425
332
root 10.5553 16.4466 10.5988 17.1994 -81.927 2.48003
lowerback 5.45176 -0.443621 -14.3174
upperback 2.25364 -1.3804 -0.208508
thorax -0.344146 -0.811184 7.904
lowerneck 4.33065 -9.74248 -1.73988
upperneck -17.3071 -11.9959 13.0139
head -4.95668 -6.89818 4.94358
rclavicle 1.43125e-014 -2.94201e-014
rhumerus -46.0355 -39.1788 -46.2147
rradius 74.6909
rwrist -36.0797
rhand -13.2994 -25.6802
rfingers 7.12502
rthumb 12.8046 -55.2675
lclavicle 1.43125e-014 -2.94201e-014
lhumerus -27.2381 -41.6974 109.164
lradius 98.3311
lwrist -7.37535
lhand -55.0478 -34.6131
lfingers 7.12502
lthumb -27.4259 -6.58942
rfemur -10.4781 5.34495 -9.8374
rtibia 6.05836
rfoot -2.93461 -45.052
rtoes 38.2166
lfemur -30.6032 -1.31268 -8.06521
ltibia 18.2052
lfoot -12.6047 19.5609
ltoes -66.4823
333
root 10.5509 16.447 10.598 18.3384 -81.932 1.4199
lowerback 5.37779 -0.37479 -14.306
upperback 2.24192 -1.27411 -0.120814
thorax -0.338607 -0.757614 7.98602
lowerneck 3.86486 -9.82273 -1.46068
upperneck -16.8967 -12.1555 12.631
head -4.78639 -6.94081 4.73735
rclavicle -2.66371e-014 -2.38542e-014
rhumerus -46.1235 -39.2128 -46.0318
rradius 74.7535
rwrist -36.1263
rhand -12.8894 -26.0967
rfingers 7.12502
rthumb 13.1998 -55.6588
lclavicle -2.66371e-014 -2.38542e-014
lhumerus -27.2338 -41.8843 109.272
lradius 98.3035
lwrist -7.5046
lhand -55.031 -34.8541
lfingers 7.12502
lthumb -27.4098 -6.82783
rfemur -10.6148 5.36855 -9.70183
rtibia 6.11678
rfoot -2.96378 -45.0004
rtoes 38.3704
lfemur -30.6584 -1.29738 -7.85723
ltibia 18.1695
lfoot -12.7826 19.5685
ltoes -66.1828
334
root 10.5479 16.4474 10.5977 19.1458 -81.9321 0.67779
lowerback 5.28873 -0.3278 -14.1576
upperback 2.25656 -1.18988 -0.185679
thorax -0.299485 -0.718037 7.82644
lowerneck 3.61337 -9.90289 -1.0946
upperneck -16.6649 -12.2796 12.389
head -4.70738 -6.99301 4.5852
rclavicle -4.01545e-014 1.43125e-014
rhumerus -46.2024 -39.3132 -46.1589
rradius 74.7572
rwrist -36.5321
rhand -13.4438 -25.4663
rfingers 7.12502
rthumb 12.6654 -55.0623
lclavicle -4.01545e-014 1.43125e-014
lhumerus -27.2435 -42.1545 109.203
lradius 98.3007
lwrist -7.52809
lhand -54.8999 -34.8213
lfingers 7.12502
lthumb -27.2844 -6.77534
rfemur -10.7212 5.32961 -9.60414
rtibia 6.15711
rfoot -2.54478 -44.9562
rtoes 37.9061
lfemur -30.7401 -1.20036 -7.74053
ltibia 18.1877
lfoot -12.596 19.6597
ltoes -66.3505
335
root 10.5451 16.4472 10.5973 19.5006 -81.9239 0.375434
lowerback 5.22973 -0.327727 -14.0794
upperback 2.2485 -1.17769 -0.235391
thorax -0.281435 -0.712038 7.72718
lowerneck 3.50283 -9.92151 -0.775182
upperneck -16.5618 -12.3124 12.1702
head -4.6935 -7.00633 4.46154
rclavicle 1.03368e-014 1.11319e-014
rhumerus -46.2055 -39.3657 -46.2846
rradius 74.7301
rwrist -36.7511
rhand -13.7847 -25.0569
rfingers 7.12502
rthumb 12.3367 -54.673
lclavicle 1.03368e-014 1.11319e-014
lhumerus -27.324 -42.29 109.191
lradius 98.324
lwrist -7.4748
lhand -54.7467 -34.4111
lfingers 7.12502
lthumb -27.1379 -6.34212
rfemur -10.7814 5.25563 -9.56502
rtibia 6.17851
rfoot -2.03287 -44.8875
rtoes 37.382
lfemur -30.8149 -1.11273 -7.71253
ltibia 18.2246
lfoot -12.3805 19.7308
ltoes -66.6237
336
root 10.5412 16.4475 10.5972 19.7058 -81.9237 0.167057
lowerback 5.23274 -0.355262 -14.0763
upperback 2.23931 -1.21475 -0.225206
thorax -0.283925 -0.729709 7.73821
lowerneck 3.45356 -9.88558 -0.462527
upperneck -16.5742 -12.2655 11.9547
head -4.72994 -6.98603 4.34845
rclavicle -1.59028e-015 3.18055e-014
rhumerus -46.1144 -39.2915 -46.3988
rradius 74.7162
rwrist -36.787
rhand -14.1301 -24.9883
rfingers 7.12502
rthumb 12.0037 -54.6241
lclavicle -1.59028e-015 3.18055e-014
lhumerus -27.3862 -42.2695 109.176
lradius 98.3428
lwrist -7.475
lhand -54.8933 -34.3119
lfingers 7.12502
lthumb -27.2781 -6.26492
rfemur -10.7797 5.1637 -9.52357
rtibia 6.20751
rfoot -1.48996 -44.7789
rtoes 36.991
lfemur -30.7826 -1.10217 -7.68783
ltibia 18.2002
lfoot -12.5717 19.5954
ltoes -66.3678
337
root 10.5381 16.4481 10.5972 19.8589 -81.9224 -0.0194544
lowerback 5.27113 -0.359266 -14.0825
upperback 2.23454 -1.22682 -0.214294
thorax -0.307256 -0.733913 7.7549
lowerneck 3.73252 -9.8203 -0.115543
upperneck -16.9378 -12.1553 11.6948
head -4.93955 -6.95145 4.25554
rclavicle 1.74931e-014 2.14687e-014
rhumerus -46.0695 -39.1876 -46.4626
rradius 74.6977
rwrist -36.7544
rhand -14.5055 -24.8831
rfingers 7.12502
rthumb 11.6417 -54.5397
lclavicle 1.74931e-014 2.14687e-014
lhumerus -27.3998 -42.2446 109.161
lradius 98.352
lwrist -7.43681
lhand -55.0622 -34.585
lfingers 7.12502
lthumb -27.4397 -6.56349
rfemur -10.7383 5.16747 -9.48236
rtibia 6.20265
rfoot -1.32466 -44.7495
rtoes 36.9094
lfemur -30.7208 -1.13963 -7.64485
ltibia 18.1674
lfoot -12.9378 19.3936
ltoes -65.8274
338
root 10.5364 16.4468 10.5978 20.2668 -81.8486 -0.390604
lowerback 5.21982 -0.370261 -14.0038
upperback 2.22557 -1.22889 -0.206398
thorax -0.289554 -0.734825 7.71817
lowerneck 4.10222 -9.72509 0.0812016
upperneck -17.3109 -12.0095 11.4469
head -5.15813 -6.89162 4.19234
rclavicle -3.97569e-015 2.22639e-014
rhumerus -46.103 -39.2178 -46.4564
rradius 74.708
rwrist -36.6705
rhand -14.5982 -24.8376
rfingers 7.12502
rthumb 11.5522 -54.4992
lclavicle -3.97569e-015 2.22639e-014
lhumerus -27.3903 -42.2807 109.164
lradius 98.356
lwrist -7.33808
lhand -55.0101 -34.7187
lfingers 7.12502
lthumb -27.3898 -6.68936
rfemur -10.7247 5.23499 -9.41656
rtibia 6.17093
rfoot -1.88256 -44.8231
rtoes 37.4099
lfemur -30.8087 -1.20407 -7.55493
ltibia 18.2206
lfoot -13.0678 19.3532
ltoes -65.6198
